# xmcd
#
# Track frame offsets: 
#        150
#        8512
#        17242
#        31552
#        42865
#        53242
#        64810
#        75492
#        88117
#        102297
#        111817
#        123482
#        134720
#        141790
#        151260
#        160717
#        171392
#        180877
#        189887
#        199110
#
# Disc length: 2828 seconds
#
# Revision: 1
# Processed by: cddbd v1.5.2PL0 Copyright (c) Steve Scherf et al.
# Submitted via: ExactAudioCopy v0.95b4
#
DISCID=f90b0a14
DTITLE=Various Artist - World's Greatest Bluegrass Banjos
DYEAR=2002
DGENRE=Bluegrass
TTITLE0=Foggy Mountain Breakdown
TTITLE1=Drive Time
TTITLE2=Darlin' Cory
TTITLE3=Limehouse Blues
TTITLE4=Banjos Going Home
TTITLE5=Feudin' Banjos
TTITLE6=Roll in my Sweet Baby's Arms
TTITLE7=Grass Country
TTITLE8=Down That Last Lonesome Highway
TTITLE9=Old Rattler
TTITLE10=Memphis Five String
TTITLE11=Bile 'Em Cabbage Down
TTITLE12=Cluck Ol' Hen
TTITLE13=Soldier's Joy
TTITLE14=Tequila
TTITLE15=I Wanna Hold Your Hand
TTITLE16=Maryville Breakdown
TTITLE17=Buck Creek
TTITLE18=Pretty Red Wing
TTITLE19=Farewell Blues
EXTD=
EXTT0=
EXTT1=
EXTT2=
EXTT3=
EXTT4=
EXTT5=
EXTT6=
EXTT7=
EXTT8=
EXTT9=
EXTT10=
EXTT11=
EXTT12=
EXTT13=
EXTT14=
EXTT15=
EXTT16=
EXTT17=
EXTT18=
EXTT19=
PLAYORDER=
